# xmcd
#
# Track frame offsets:
#	150
#	18510
#	27812
#	41237
#	52884
#	68122
#	98284
#	108204
#	125220
#	137716
#	156894
#	165294
#	171351
#
# Disc length: 2784 seconds
# Revision: 0
# Processed by: cddbd v1.5.2PL0 Copyright (c) Steve Scherf et al.
# Submitted via: dBpowerAMP V12.0
#
DISCID=a20ade0d
DTITLE=David Grier - I've Got the House to Myself
DYEAR=2002
DGENRE=Country
TTITLE0=Bill Cheatum
TTITLE1=Turkey in the Straw
TTITLE2=John Henry
TTITLE3=Sally Gooden
TTITLE4=I've Got the House to Myself
TTITLE5=Evening Prayer Blues
TTITLE6=Arkansas Traveler
TTITLE7=Ookpic Waltz
TTITLE8=Choices We've Made
TTITLE9=Black Mountain Rag
TTITLE10=Whistling Rufus
TTITLE11=The Gal I Left Behind Me
TTITLE12=Sally Gooden
EXTD=
EXTT0=
EXTT1=
EXTT2=
EXTT3=
EXTT4=
EXTT5=
EXTT6=
EXTT7=
EXTT8=
EXTT9=
EXTT10=
EXTT11=
EXTT12=
PLAYORDER=
